<svg width="37" height="37" viewBox="0 0 37 37" fill="none" xmlns="http://www.w3.org/2000/svg">
<path fill-rule="evenodd" clip-rule="evenodd" d="M19.6009 5.30461L23.1714 12.4872C23.3503 12.8495 23.6956 13.1024 24.0964 13.1609L32.09 14.3157C32.4137 14.3588 32.7051 14.5284 32.904 14.7874C33.2771 15.273 33.22 15.9606 32.7729 16.3784L26.9794 21.9808C26.6849 22.2583 26.5539 22.6653 26.6309 23.0615L28.0184 30.9672C28.1156 31.6224 27.6685 32.236 27.0133 32.3424C26.7419 32.384 26.4644 32.3408 26.2178 32.219L19.0984 28.4867C18.7407 28.2924 18.3121 28.2924 17.9544 28.4867L10.7826 32.2391C10.1829 32.5443 9.44907 32.3177 9.12224 31.7303C8.99736 31.4929 8.9542 31.2231 8.99736 30.9595L10.3849 23.0538C10.4542 22.6592 10.3232 22.2537 10.0364 21.9747L4.21203 16.3738C3.7372 15.902 3.73411 15.1343 4.2074 14.6594C4.20895 14.6579 4.21049 14.6548 4.21203 14.6533C4.40782 14.476 4.64832 14.3573 4.90886 14.311L12.9039 13.1563C13.3032 13.0931 13.647 12.8434 13.8289 12.4811L17.3964 5.30461C17.5397 5.01324 17.7941 4.7897 18.1024 4.68795C18.4123 4.58465 18.7515 4.60932 19.0429 4.75578C19.2818 4.87449 19.4776 5.0672 19.6009 5.30461Z" fill="#F0F0F4" stroke="#C2C3C7" stroke-linecap="round" stroke-linejoin="round"/>
</svg>
