<svg width="38" height="37" viewBox="0 0 38 37" fill="none" xmlns="http://www.w3.org/2000/svg">
<path fill-rule="evenodd" clip-rule="evenodd" d="M20.351 5.30461L23.9215 12.4872C24.1003 12.8495 24.4456 13.1024 24.8465 13.1609L32.84 14.3157C33.1637 14.3588 33.4551 14.5284 33.654 14.7874C34.0271 15.273 33.97 15.9606 33.523 16.3784L27.7294 21.9808C27.4349 22.2583 27.3039 22.6653 27.381 23.0615L28.7685 30.9672C28.8656 31.6224 28.4185 32.236 27.7633 32.3424C27.492 32.384 27.2145 32.3408 26.9678 32.219L19.8484 28.4867C19.4907 28.2924 19.0621 28.2924 18.7045 28.4867L11.5326 32.2391C10.9329 32.5443 10.1991 32.3177 9.87225 31.7303C9.74737 31.4929 9.7042 31.2231 9.74737 30.9595L11.1349 23.0538C11.2042 22.6592 11.0732 22.2537 10.7865 21.9747L4.96204 16.3738C4.4872 15.902 4.48412 15.1343 4.95741 14.6594C4.95895 14.6579 4.9605 14.6548 4.96204 14.6533C5.15783 14.476 5.39833 14.3573 5.65887 14.311L13.654 13.1563C14.0532 13.0931 14.397 12.8434 14.579 12.4811L18.1464 5.30461C18.2897 5.01324 18.5441 4.7897 18.8525 4.68795C19.1623 4.58465 19.5015 4.60932 19.7929 4.75578C20.0318 4.87449 20.2276 5.0672 20.351 5.30461Z" fill="#F8AF43"/>
</svg>
